# xmcd
# Copyright (C) 1995-1998 Ti Kan
#
# Track frame offsets:
#       150
#       15148
#       28614
#       37645
#       62222
#       69564
#       85296
#       100770
#       113398
#       130614
#       145417
#
# Disc length: 2211 seconds
#
# Revision: 0
# Processed by: cddbd v1.5.2PL0 Copyright (c) Steve Scherf et al.
# Submitted via: CD-Import v1.0
#
DISCID=7d08a10b
DTITLE=Heavy Trash - Midnight Soul Serenade
DYEAR=10
DGENRE=
TTITLE0=Gee, I Really Love You
TTITLE1=Good Man
TTITLE2=Bumble Bee
TTITLE3=The Pill
TTITLE4=Pimento
TTITLE5=(Sometimes You Got To Be) Gentle
TTITLE6=Isolation
TTITLE7=Bedevilment
TTITLE8=Sweet Little Bird
TTITLE9=That's What Your Love Gets
TTITLE10=In My Heart
EXTD=
EXTT0=
EXTT1=
EXTT2=
EXTT3=
EXTT4=
EXTT5=
EXTT6=
EXTT7=
EXTT8=
EXTT9=
EXTT10=
PLAYORDER=
